# xmcd
#
# Track frame offsets:
#	150
#	15775
#	29370
#	48320
#	60747
#	75250
#	86542
#	96782
#	110452
#	126937
#	143025
#	160845
#	173955
#	186085
#	196607
#	209642
#	223200
#	235662
#	247650
#	257930
#	269940
#	281977
#	295487
#
# Disc length: 4081 seconds
#
# Revision: 1
# Processed by: cddbd v1.5.1PL0 Copyright (c) Steve Scherf et al.
# Submitted via: audiograbber 1.83.01
#
DISCID=4f0fef17
DTITLE=Hank Snow - The Singing Ranger, Vol. 4 (3 of 9)
DYEAR=1900
DGENRE=Country
TTITLE0=The hobo's meditation
TTITLE1=My rough and rowdy ways
TTITLE2=Frankie and Johnny
TTITLE3=She was happy till she met you
TTITLE4=Away out on the mountain
TTITLE5=Cowhand's last ride
TTITLE6=Everybody does it in Hawaii
TTITLE7=I've ranged, I've roamed, I've traveled
TTITLE8=Ninety-nine year blues
TTITLE9=Mother, the queen of my heart
TTITLE10=Whisper your mother's name
TTITLE11=Home call
TTITLE12=My blue eyed Jane
TTITLE13=Waiting for a train
TTITLE14=Pistol packin' papa
TTITLE15=I B blues
TTITLE16=My little old home down in New Orleans
TTITLE17=Why did you give me your love
TTITLE18=In the jailhouse now
TTITLE19=Gambling polka dots blues
TTITLE20=The one rose (that's left in my heart)
TTITLE21=Hobo Bill's last ride
TTITLE22=Nobody knows but me
EXTD=
EXTT0=
EXTT1=
EXTT2=
EXTT3=
EXTT4=
EXTT5=
EXTT6=
EXTT7=
EXTT8=
EXTT9=
EXTT10=
EXTT11=
EXTT12=
EXTT13=
EXTT14=
EXTT15=
EXTT16=
EXTT17=
EXTT18=
EXTT19=
EXTT20=
EXTT21=
EXTT22=
PLAYORDER=
